<svg xmlns="http://www.w3.org/2000/svg" xmlns:xlink="http://www.w3.org/1999/xlink" width="2000" zoomAndPan="magnify" viewBox="0 0 1500 449.999984" height="600" preserveAspectRatio="xMidYMid meet" version="1.0"><defs><g/></defs><rect x="-150" width="1800" fill="#ffffff" y="-44.999998" height="539.99998" fill-opacity="1"/><rect x="-150" width="1800" fill="#ffffff" y="-44.999998" height="539.99998" fill-opacity="1"/><rect x="-150" width="1800" fill="#ffffff" y="-44.999998" height="539.99998" fill-opacity="1"/><g fill="#158bbe" fill-opacity="1"><g transform="translate(3.665227, 286.729649)"><g><path d="M 68.347656 -113.78125 L 9.285156 -71.308594 L 9.285156 -60.445312 L 68.347656 -17.976562 L 68.347656 -39.507812 L 28.839844 -65.777344 L 68.347656 -93.238281 Z M 68.347656 -113.78125 "/></g></g></g><g fill="#9c15be" fill-opacity="1"><g transform="translate(80.827324, 286.729649)"><g><path d="M 36.148438 -153.683594 C 23.902344 -153.683594 14.222656 -144.003906 14.222656 -131.753906 L 14.222656 -88.691406 C 14.222656 -76.445312 23.902344 -66.765625 36.148438 -66.765625 L 108.050781 -66.765625 C 113.1875 -66.765625 117.335938 -62.617188 117.335938 -57.484375 L 117.335938 -29.234375 C 117.335938 -24.097656 113.1875 -20.148438 108.050781 -20.148438 L 18.566406 -20.148438 L 18.566406 0 L 116.347656 0 C 128.59375 0 138.273438 -9.679688 138.273438 -21.925781 L 138.273438 -64.988281 C 138.273438 -77.234375 128.59375 -86.914062 116.347656 -86.914062 L 44.445312 -86.914062 C 39.308594 -86.914062 35.160156 -91.0625 35.160156 -96.199219 L 35.160156 -124.445312 C 35.160156 -129.582031 39.308594 -133.535156 44.445312 -133.535156 L 133.929688 -133.535156 L 133.929688 -153.683594 Z M 36.148438 -153.683594 "/></g></g></g><g fill="#9c15be" fill-opacity="1"><g transform="translate(233.12705, 286.729649)"><g><path d="M 14.222656 -153.683594 L 14.222656 0 L 33.382812 0 L 33.382812 -70.71875 C 33.382812 -82.175781 43.457031 -91.457031 55.113281 -91.457031 L 80.59375 -91.457031 C 85.730469 -91.457031 90.074219 -86.914062 90.074219 -81.78125 L 90.074219 0 L 109.238281 0 L 109.238281 -87.707031 C 109.238281 -99.953125 99.558594 -109.828125 87.308594 -109.828125 L 60.644531 -109.828125 C 49.382812 -109.828125 37.925781 -103.3125 33.382812 -92.25 L 33.382812 -153.683594 Z M 14.222656 -153.683594 "/></g></g></g><g fill="#9c15be" fill-opacity="1"><g transform="translate(356.389166, 286.729649)"><g><path d="M 36.148438 -109.828125 C 23.902344 -109.828125 14.222656 -99.953125 14.222656 -87.707031 L 14.222656 -21.925781 C 14.222656 -9.679688 23.902344 0 36.148438 0 L 87.308594 0 C 99.558594 0 109.238281 -9.679688 109.238281 -21.925781 L 109.238281 -33.976562 L 90.074219 -33.976562 L 90.074219 -27.851562 C 90.074219 -22.714844 85.730469 -18.171875 80.59375 -18.171875 L 42.863281 -18.171875 C 37.730469 -18.171875 33.382812 -22.714844 33.382812 -27.851562 L 33.382812 -46.027344 L 109.238281 -46.027344 L 109.238281 -87.707031 C 109.238281 -99.953125 99.558594 -109.828125 87.308594 -109.828125 Z M 33.382812 -63.605469 L 33.382812 -81.78125 C 33.382812 -86.914062 37.730469 -91.457031 42.863281 -91.457031 L 80.59375 -91.457031 C 85.730469 -91.457031 90.074219 -86.914062 90.074219 -81.78125 L 90.074219 -63.605469 Z M 33.382812 -63.605469 "/></g></g></g><g fill="#158bbe" fill-opacity="1"><g transform="translate(479.56246, 286.729649)"><g><path d="M 2.171875 -109.828125 L 44.445312 0 L 63.605469 0 L 105.878906 -109.828125 L 85.335938 -109.828125 L 54.125 -21.925781 L 22.714844 -109.828125 Z M 2.171875 -109.828125 "/></g></g></g><g fill="#158bbe" fill-opacity="1"><g transform="translate(587.416744, 286.729649)"><g><path d="M 36.148438 -109.828125 C 23.902344 -109.828125 14.222656 -99.953125 14.222656 -87.707031 L 14.222656 -21.925781 C 14.222656 -9.679688 23.902344 0 36.148438 0 L 87.308594 0 C 99.558594 0 109.238281 -9.679688 109.238281 -21.925781 L 109.238281 -33.976562 L 90.074219 -33.976562 L 90.074219 -27.851562 C 90.074219 -22.714844 85.730469 -18.171875 80.59375 -18.171875 L 42.863281 -18.171875 C 37.730469 -18.171875 33.382812 -22.714844 33.382812 -27.851562 L 33.382812 -46.027344 L 109.238281 -46.027344 L 109.238281 -87.707031 C 109.238281 -99.953125 99.558594 -109.828125 87.308594 -109.828125 Z M 33.382812 -63.605469 L 33.382812 -81.78125 C 33.382812 -86.914062 37.730469 -91.457031 42.863281 -91.457031 L 80.59375 -91.457031 C 85.730469 -91.457031 90.074219 -86.914062 90.074219 -81.78125 L 90.074219 -63.605469 Z M 33.382812 -63.605469 "/></g></g></g><g fill="#158bbe" fill-opacity="1"><g transform="translate(710.678861, 286.729649)"><g><path d="M 14.222656 -153.683594 L 14.222656 0 L 33.382812 0 L 33.382812 -153.683594 Z M 14.222656 -153.683594 "/></g></g></g><g fill="#158bbe" fill-opacity="1"><g transform="translate(758.087396, 286.729649)"><g><path d="M 36.148438 -109.828125 C 23.902344 -109.828125 14.222656 -99.953125 14.222656 -87.707031 L 14.222656 -21.925781 C 14.222656 -9.679688 23.902344 0 36.148438 0 L 87.308594 0 C 99.558594 0 109.238281 -9.679688 109.238281 -21.925781 L 109.238281 -87.707031 C 109.238281 -99.953125 99.558594 -109.828125 87.308594 -109.828125 Z M 42.863281 -91.457031 L 80.59375 -91.457031 C 85.730469 -91.457031 90.074219 -86.914062 90.074219 -81.78125 L 90.074219 -27.851562 C 90.074219 -22.714844 85.730469 -18.171875 80.59375 -18.171875 L 42.863281 -18.171875 C 37.730469 -18.171875 33.382812 -22.714844 33.382812 -27.851562 L 33.382812 -81.78125 C 33.382812 -86.914062 37.730469 -91.457031 42.863281 -91.457031 Z M 42.863281 -91.457031 "/></g></g></g><g fill="#158bbe" fill-opacity="1"><g transform="translate(881.349513, 286.729649)"><g><path d="M 14.222656 -109.828125 L 14.222656 43.851562 L 33.382812 43.851562 L 33.382812 -17.976562 C 37.925781 -6.714844 48.792969 0 59.851562 0 L 87.308594 0 C 99.558594 0 109.238281 -9.679688 109.238281 -21.925781 L 109.238281 -87.707031 C 109.238281 -99.953125 99.558594 -109.828125 87.308594 -109.828125 L 59.851562 -109.828125 C 48 -109.828125 37.730469 -102.519531 33.382812 -92.050781 L 33.382812 -109.828125 Z M 54.320312 -91.457031 L 79.605469 -91.457031 C 84.941406 -91.457031 90.074219 -87.113281 90.074219 -81.78125 L 90.074219 -27.851562 C 90.074219 -22.519531 84.941406 -18.171875 79.605469 -18.171875 L 54.320312 -18.171875 C 42.863281 -18.171875 33.382812 -28.246094 33.382812 -39.902344 L 33.382812 -69.730469 C 33.382812 -81.1875 42.863281 -91.457031 54.320312 -91.457031 Z M 54.320312 -91.457031 "/></g></g></g><g fill="#158bbe" fill-opacity="1"><g transform="translate(1004.611629, 286.729649)"><g><path d="M 36.148438 -109.828125 C 23.902344 -109.828125 14.222656 -99.953125 14.222656 -87.707031 L 14.222656 -21.925781 C 14.222656 -9.679688 23.902344 0 36.148438 0 L 87.308594 0 C 99.558594 0 109.238281 -9.679688 109.238281 -21.925781 L 109.238281 -33.976562 L 90.074219 -33.976562 L 90.074219 -27.851562 C 90.074219 -22.714844 85.730469 -18.171875 80.59375 -18.171875 L 42.863281 -18.171875 C 37.730469 -18.171875 33.382812 -22.714844 33.382812 -27.851562 L 33.382812 -46.027344 L 109.238281 -46.027344 L 109.238281 -87.707031 C 109.238281 -99.953125 99.558594 -109.828125 87.308594 -109.828125 Z M 33.382812 -63.605469 L 33.382812 -81.78125 C 33.382812 -86.914062 37.730469 -91.457031 42.863281 -91.457031 L 80.59375 -91.457031 C 85.730469 -91.457031 90.074219 -86.914062 90.074219 -81.78125 L 90.074219 -63.605469 Z M 33.382812 -63.605469 "/></g></g></g><g fill="#158bbe" fill-opacity="1"><g transform="translate(1127.873746, 286.729649)"><g><path d="M 14.222656 -109.828125 L 14.222656 0 L 33.382812 0 L 33.382812 -70.71875 C 33.382812 -82.175781 42.863281 -91.457031 54.320312 -91.457031 L 77.632812 -91.457031 L 77.632812 -109.828125 L 60.050781 -109.828125 C 48.988281 -109.828125 37.925781 -103.113281 33.382812 -92.25 L 33.382812 -109.828125 Z M 14.222656 -109.828125 "/></g></g></g><g fill="#158bbe" fill-opacity="1"><g transform="translate(1207.282981, 286.729649)"><g><path d="M 36.148438 -109.828125 C 23.902344 -109.828125 14.222656 -99.953125 14.222656 -87.707031 L 14.222656 -67.953125 C 14.222656 -55.703125 23.902344 -46.027344 36.148438 -46.027344 L 80.59375 -46.027344 C 85.730469 -46.027344 90.074219 -41.878906 90.074219 -36.742188 L 90.074219 -27.851562 C 90.074219 -22.714844 85.730469 -18.171875 80.59375 -18.171875 L 42.863281 -18.171875 C 37.730469 -18.171875 33.382812 -22.714844 33.382812 -27.851562 L 33.382812 -32.988281 L 14.222656 -32.988281 L 14.222656 -21.925781 C 14.222656 -10.074219 24.296875 0 36.148438 0 L 87.308594 0 C 99.558594 0 109.238281 -9.679688 109.238281 -21.925781 L 109.238281 -40.890625 C 109.238281 -53.53125 99.558594 -63.605469 87.308594 -63.605469 L 42.863281 -63.605469 C 37.730469 -63.605469 33.382812 -67.753906 33.382812 -72.890625 L 33.382812 -81.78125 C 33.382812 -86.914062 37.730469 -91.457031 42.863281 -91.457031 L 80.59375 -91.457031 C 85.730469 -91.457031 90.074219 -86.914062 90.074219 -81.78125 L 90.074219 -76.644531 L 109.238281 -76.644531 L 109.238281 -87.707031 C 109.238281 -99.558594 99.164062 -109.828125 87.308594 -109.828125 Z M 36.148438 -109.828125 "/></g></g></g><g fill="#158bbe" fill-opacity="1"><g transform="translate(1330.545098, 286.729649)"><g><path d="M 53.730469 -153.683594 L 9.875 0 L 29.039062 0 L 72.890625 -153.683594 Z M 53.730469 -153.683594 "/></g></g></g><g fill="#158bbe" fill-opacity="1"><g transform="translate(1412.127249, 286.729649)"><g><path d="M 9.285156 -113.78125 L 9.285156 -93.238281 L 48.988281 -65.777344 L 9.285156 -39.507812 L 9.285156 -17.976562 L 68.347656 -60.445312 L 68.347656 -71.308594 Z M 9.285156 -113.78125 "/></g></g></g></svg>